<?xml version="1.0" encoding="UTF-8" standalone="no"?>
<!-- Created with Inkscape (http://www.inkscape.org/) -->

<svg
   width="74.429138mm"
   height="25.974224mm"
   viewBox="0 0 74.429138 25.974224"
   version="1.1"
   id="svg1"
   inkscape:version="1.4.1 (93de688d07, 2025-03-30)"
   sodipodi:docname="letsdont.svg"
   xml:space="preserve"
   xmlns:inkscape="http://www.inkscape.org/namespaces/inkscape"
   xmlns:sodipodi="http://sodipodi.sourceforge.net/DTD/sodipodi-0.dtd"
   xmlns="http://www.w3.org/2000/svg"
   xmlns:svg="http://www.w3.org/2000/svg"><sodipodi:namedview
     id="namedview1"
     pagecolor="#ffffff"
     bordercolor="#666666"
     borderopacity="1.0"
     inkscape:showpageshadow="2"
     inkscape:pageopacity="0.0"
     inkscape:pagecheckerboard="0"
     inkscape:deskcolor="#d1d1d1"
     inkscape:document-units="mm"
     inkscape:zoom="3.4452761"
     inkscape:cx="174.00637"
     inkscape:cy="47.456283"
     inkscape:window-width="1918"
     inkscape:window-height="1030"
     inkscape:window-x="0"
     inkscape:window-y="24"
     inkscape:window-maximized="1"
     inkscape:current-layer="layer1" /><defs
     id="defs1" /><g
     inkscape:label="Layer 1"
     inkscape:groupmode="layer"
     id="layer1"
     transform="translate(0.04305419,0.04305387)"><rect
       style="fill:#c87137;stroke:#ffffff;stroke-width:0.588358;stroke-linecap:round;stroke-linejoin:round"
       id="rect2"
       width="73.840782"
       height="25.385866"
       x="0.2511248"
       y="0.25112513"
       rx="0.62484586"
       ry="0.7888068" /><text
       xml:space="preserve"
       style="font-style:normal;font-variant:normal;font-weight:normal;font-stretch:normal;font-size:9.87777px;line-height:1.25;font-family:'Noto Serif';-inkscape-font-specification:'Noto Serif';text-align:end;letter-spacing:0px;word-spacing:0px;text-anchor:end;fill:#f9f9f9;stroke:#803300;stroke-width:0.2;stroke-dasharray:none"
       x="46.469131"
       y="10.935159"
       id="text1"><tspan
         sodipodi:role="line"
         id="tspan1"
         style="font-style:normal;font-variant:normal;font-weight:normal;font-stretch:normal;font-family:'Noto Serif';-inkscape-font-specification:'Noto Serif';fill:#f9f9f9;stroke:#803300;stroke-width:0.2;stroke-dasharray:none"
         x="46.469128"
         y="10.935159">SHIT YES</tspan></text><text
       xml:space="preserve"
       style="font-style:normal;font-variant:normal;font-weight:normal;font-stretch:normal;font-size:9.87777px;line-height:1.25;font-family:'Noto Serif';-inkscape-font-specification:'Noto Serif';text-align:end;letter-spacing:0px;word-spacing:0px;text-anchor:end;fill:#f9f9f9;stroke:#803300;stroke-width:0.2;stroke-dasharray:none"
       x="70.43795"
       y="21.969221"
       id="text2"><tspan
         sodipodi:role="line"
         id="tspan2"
         style="font-style:normal;font-variant:normal;font-weight:normal;font-stretch:normal;font-family:'Noto Serif';-inkscape-font-specification:'Noto Serif';fill:#f9f9f9;stroke:#803300;stroke-width:0.2;stroke-dasharray:none"
         x="70.43795"
         y="21.969221">LET'S DON'T</tspan></text><g
       id="g8"
       transform="translate(10.905028,-0.23038792)"
       style="fill:#ffffff;stroke:#803300;stroke-width:0.2;stroke-dasharray:none"><path
         style="fill:#ffffff;stroke:#803300;stroke-width:0.2;stroke-linecap:butt;stroke-linejoin:round;stroke-dasharray:none;stroke-opacity:1"
         d="m 53.856802,6.4769478 c 0,0 -1.138372,-0.1177621 -1.21688,1.0794915 0.03925,0.6084406 0.339583,1.4508844 0.628068,1.6683048 0.319617,0.186627 0.510306,0.5691862 1.275763,0.2944066 0.451424,-0.2551525 0.07851,-0.2747795 0,-0.9028472 0.353288,0.6280677 0.981355,1.3346438 2.453389,0.7262032 0,0 1.373898,-0.2944067 1.76644,-0.4710507 C 58.881345,8.2433883 56.506464,5.4170836 56.506464,5.4170836 56.035413,4.8282701 55.780259,6.0844055 53.856802,6.4769478 Z"
         id="path3"
         sodipodi:nodetypes="ccccccccc" /><path
         style="fill:#ffffff;stroke:#803300;stroke-width:0.2;stroke-linecap:round;stroke-linejoin:round;stroke-dasharray:none;stroke-opacity:1"
         d="m 54.583007,8.5870727 c 0.09814,1.4131523 1.040236,1.9627113 1.256134,2.5122703 0.235525,0.471051 0.13739,1.118746 0.13739,1.118746 0.510305,0.88322 1.177628,-0.117763 1.197255,-0.294407 0.372915,-0.981356 -0.17122,-1.894225 -0.215904,-2.2963724 -0.07599,-0.6838609 0.333664,-1.1776267 0.196274,-1.4524063"
         id="path8"
         sodipodi:nodetypes="ccccsc" /><path
         style="fill:#ffffff;stroke:#803300;stroke-width:0.2;stroke-linecap:butt;stroke-linejoin:round;stroke-dasharray:none;stroke-opacity:1"
         d="m 56.6046,5.299321 c 0.942102,-0.1962712 1.648677,-0.4317966 1.648677,-0.4317966 0.490678,0.078508 0.706577,0.8635932 0.294408,1.0206101 -0.314034,0.176644 -1.727187,0.5299321 -1.727187,0.5299321 C 56.526091,6.4769479 56.251312,5.4563379 56.6046,5.299321 Z"
         id="path4"
         sodipodi:nodetypes="ccccc" /><path
         style="fill:#ffffff;stroke:#803300;stroke-width:0.2;stroke-linecap:round;stroke-linejoin:round;stroke-dasharray:none;stroke-opacity:1"
         d="m 53.856804,6.5554564 c 0.09814,-1.4131523 1.040236,-1.9627115 1.256134,-2.5122707 0.235525,-0.4710508 0.13739,-1.1187456 0.13739,-1.1187456 0.510305,-0.8832202 1.177628,0.1177629 1.197255,0.2944069 0.372915,0.9813558 -0.17122,1.894225 -0.215904,2.2963724 -0.07599,0.683861 0.333664,1.1776268 0.196274,1.4524064 -0.333661,1.6879319 -1.923454,0.7654575 -1.923454,0.7654575"
         id="path2"
         sodipodi:nodetypes="ccccscc" /><path
         style="fill:#ffffff;stroke:#803300;stroke-width:0.2;stroke-linecap:butt;stroke-linejoin:round;stroke-dasharray:none;stroke-opacity:1"
         d="m 56.957888,6.3003039 c 0.942102,-0.1962712 1.648677,-0.4317966 1.648677,-0.4317966 0.490678,0.078508 0.706577,0.8635932 0.294408,1.0206101 -0.314034,0.176644 -1.727187,0.5299321 -1.727187,0.5299321 C 56.879379,7.4779308 56.6046,6.4573208 56.957888,6.3003039 Z"
         id="path5"
         sodipodi:nodetypes="ccccc" /><path
         style="fill:#ffffff;stroke:#803300;stroke-width:0.2;stroke-linecap:butt;stroke-linejoin:round;stroke-dasharray:none;stroke-opacity:1"
         d="m 57.075651,7.4190495 c 0.942102,-0.1962712 1.746812,-0.490678 1.746812,-0.490678 0.510305,-0.1177632 0.608442,0.7065763 0.196273,0.8635932 -0.314034,0.176644 -1.766441,0.5299321 -1.766441,0.5299321 -0.294407,0.058881 -0.529932,-0.7458304 -0.176644,-0.9028473 z"
         id="path6"
         sodipodi:nodetypes="ccccc" /><path
         style="fill:#ffffff;stroke:#803300;stroke-width:0.2;stroke-linecap:butt;stroke-linejoin:round;stroke-dasharray:none;stroke-opacity:1"
         d="m 57.193414,8.3807781 c 0.942102,-0.1962712 1.786067,-0.4514237 1.786067,-0.4514237 0.294407,0.039254 0.392543,0.5888135 0.255154,0.8243389 -0.314034,0.176644 -1.884204,0.3729152 -1.884204,0.3729152 -0.294407,0.058881 -0.510305,-0.5888135 -0.157017,-0.7458304 z"
         id="path7"
         sodipodi:nodetypes="ccccc" /></g></g></svg>
