<?xml version="1.0" encoding="UTF-8" standalone="no"?>
<!-- Created with Inkscape (http://www.inkscape.org/) -->

<svg
   width="45mm"
   height="42mm"
   viewBox="0 0 45 42"
   version="1.1"
   id="svg1"
   inkscape:version="1.4.3 (0d15f75042, 2025-12-25)"
   sodipodi:docname="tuklet.svg"
   xml:space="preserve"
   xmlns:inkscape="http://www.inkscape.org/namespaces/inkscape"
   xmlns:sodipodi="http://sodipodi.sourceforge.net/DTD/sodipodi-0.dtd"
   xmlns:xlink="http://www.w3.org/1999/xlink"
   xmlns="http://www.w3.org/2000/svg"
   xmlns:svg="http://www.w3.org/2000/svg"><sodipodi:namedview
     id="namedview1"
     pagecolor="#ffffff"
     bordercolor="#000000"
     borderopacity="0.25"
     inkscape:showpageshadow="2"
     inkscape:pageopacity="0.0"
     inkscape:pagecheckerboard="0"
     inkscape:deskcolor="#d1d1d1"
     inkscape:document-units="mm"
     inkscape:zoom="2.8284271"
     inkscape:cx="75.130096"
     inkscape:cy="81.847611"
     inkscape:window-width="1715"
     inkscape:window-height="1394"
     inkscape:window-x="1721"
     inkscape:window-y="0"
     inkscape:window-maximized="0"
     inkscape:current-layer="layer1"
     showguides="true">
    <sodipodi:guide
       position="-16.332165,27.097491"
       orientation="1,0"
       id="guide1"
       inkscape:locked="false" />
  </sodipodi:namedview>
  <defs
     id="defs1">
    <inkscape:path-effect
       effect="powerclip"
       message=""
       id="path-effect81"
       is_visible="true"
       lpeversion="1"
       inverse="true"
       flatten="false"
       hide_clip="false" /><inkscape:path-effect
       effect="powerclip"
       message=""
       id="path-effect49"
       is_visible="true"
       lpeversion="1"
       inverse="true"
       flatten="false"
       hide_clip="false" /><inkscape:path-effect
       effect="powerclip"
       message=""
       id="path-effect37"
       is_visible="true"
       lpeversion="1"
       inverse="true"
       flatten="false"
       hide_clip="false" /><inkscape:path-effect
       effect="powerclip"
       message=""
       id="path-effect31"
       is_visible="true"
       lpeversion="1"
       inverse="true"
       flatten="false"
       hide_clip="false" /><linearGradient
       id="linearGradient15"
       inkscape:collect="always"><stop
         style="stop-color:#f0f0f0;stop-opacity:1;"
         offset="0"
         id="stop15" /><stop
         style="stop-color:#fafafa;stop-opacity:1;"
         offset="0.24848317"
         id="stop17" /><stop
         style="stop-color:#e6e5e5;stop-opacity:1;"
         offset="0.98891032"
         id="stop18" /></linearGradient><linearGradient
       inkscape:collect="always"
       xlink:href="#linearGradient15"
       id="linearGradient16"
       x1="1.4812964"
       y1="48.574192"
       x2="57.215088"
       y2="9.6284294"
       gradientUnits="userSpaceOnUse"
       gradientTransform="matrix(0.72447517,0,0,0.80937022,12.520859,8.6668691)" />
    <filter
       id="mask-powermask-path-effect19_inverse"
       inkscape:label="filtermask-powermask-path-effect19"
       style="color-interpolation-filters:sRGB"
       height="100"
       width="100"
       x="-50"
       y="-50"><feColorMatrix
         id="mask-powermask-path-effect19_primitive1"
         values="1"
         type="saturate"
         result="fbSourceGraphic" /><feColorMatrix
         id="mask-powermask-path-effect19_primitive2"
         values="-1 0 0 0 1 0 -1 0 0 1 0 0 -1 0 1 0 0 0 1 0 "
         in="fbSourceGraphic" /></filter><filter
       id="mask-powermask-path-effect20_inverse"
       inkscape:label="filtermask-powermask-path-effect20"
       style="color-interpolation-filters:sRGB"
       height="100"
       width="100"
       x="-50"
       y="-50"><feColorMatrix
         id="mask-powermask-path-effect20_primitive1"
         values="1"
         type="saturate"
         result="fbSourceGraphic" /><feColorMatrix
         id="mask-powermask-path-effect20_primitive2"
         values="-1 0 0 0 1 0 -1 0 0 1 0 0 -1 0 1 0 0 0 1 0 "
         in="fbSourceGraphic" /></filter><clipPath
       clipPathUnits="userSpaceOnUse"
       id="clipPath70"><g
         id="g81"
         inkscape:label="Scratches"
         style="display:none"><path
           style="fill:#000000;stroke:none;stroke-width:2;stroke-linecap:round;stroke-linejoin:round;stroke-dasharray:none;paint-order:stroke markers fill"
           d="M 4.2713137,8.5881461 29.345398,10.134978 4.2854997,8.2144301 Z"
           id="path71"
           sodipodi:nodetypes="cccc" /><path
           style="fill:#000000;stroke:none;stroke-width:2;stroke-linecap:round;stroke-linejoin:round;stroke-dasharray:none;paint-order:stroke markers fill"
           d="M 33.660065,10.917951 51.62478,3.6248435 33.662558,10.696244 Z"
           id="path72"
           sodipodi:nodetypes="cccc" /><path
           style="fill:#000000;stroke:none;stroke-width:2;stroke-linecap:round;stroke-linejoin:round;stroke-dasharray:none;paint-order:stroke markers fill"
           d="M 27.542619,20.47463 41.718788,14.912092 27.545112,20.252923 Z"
           id="path73"
           sodipodi:nodetypes="cccc" /><path
           style="fill:#000000;stroke:none;stroke-width:2;stroke-linecap:round;stroke-linejoin:round;stroke-dasharray:none;paint-order:stroke markers fill"
           d="M 7.5589264,44.911927 57.023033,40.718348 7.675391,44.512617 Z"
           id="path74"
           sodipodi:nodetypes="cccc" /><path
           style="fill:#000000;stroke:none;stroke-width:2;stroke-linecap:round;stroke-linejoin:round;stroke-dasharray:none;paint-order:stroke markers fill"
           d="M 24.700244,23.19025 57.515121,36.564594 24.86644,22.728836 Z"
           id="path75"
           sodipodi:nodetypes="cccc" /><path
           style="fill:#000000;stroke:none;stroke-width:2;stroke-linecap:round;stroke-linejoin:round;stroke-dasharray:none;paint-order:stroke markers fill"
           d="M 5.7955759,30.720492 23.76029,20.995232 5.7980689,30.498785 Z"
           id="path76"
           sodipodi:nodetypes="cccc" /><circle
           style="fill:#000000;stroke:none;stroke-width:2;stroke-linecap:round;stroke-linejoin:round;stroke-dasharray:none;paint-order:stroke markers fill"
           id="circle76"
           cx="8.7172861"
           cy="45.897995"
           r="0.56423616" /><ellipse
           style="fill:#000000;stroke:none;stroke-width:2;stroke-linecap:round;stroke-linejoin:round;stroke-dasharray:none;paint-order:stroke markers fill"
           id="ellipse76"
           cx="10.065948"
           cy="27.303865"
           rx="0.8412115"
           ry="0.093496881" /><ellipse
           style="fill:#000000;stroke:none;stroke-width:2;stroke-linecap:round;stroke-linejoin:round;stroke-dasharray:none;paint-order:stroke markers fill"
           id="ellipse77"
           cx="44.215431"
           cy="5.8423357"
           rx="0.26458332"
           ry="0.29765624" /><ellipse
           style="fill:#000000;stroke:none;stroke-width:2;stroke-linecap:round;stroke-linejoin:round;stroke-dasharray:none;paint-order:stroke markers fill"
           id="ellipse78"
           cx="50.929424"
           cy="7.9724278"
           rx="0.69535542"
           ry="3.7161608" /><ellipse
           style="fill:#000000;stroke:none;stroke-width:2;stroke-linecap:round;stroke-linejoin:round;stroke-dasharray:none;paint-order:stroke markers fill"
           id="ellipse79"
           cx="14.708194"
           cy="39.156647"
           rx="0.69535542"
           ry="3.7161608" /><path
           style="fill:#000000;stroke:none;stroke-width:2;stroke-linecap:round;stroke-linejoin:round;stroke-dasharray:none;paint-order:stroke markers fill"
           d="M 7.6941661,4.2493531 46.735348,0.84424618 7.7083521,3.8756371 Z"
           id="path79"
           sodipodi:nodetypes="cccc" /><ellipse
           style="fill:#000000;stroke:none;stroke-width:2;stroke-linecap:round;stroke-linejoin:round;stroke-dasharray:none;paint-order:stroke markers fill"
           id="ellipse80"
           cx="45.138523"
           cy="-28.749907"
           rx="0.69535542"
           ry="3.7161608"
           transform="rotate(96.074655)" /><path
           style="fill:#000000;stroke:none;stroke-width:2;stroke-linecap:round;stroke-linejoin:round;stroke-dasharray:none;paint-order:stroke markers fill"
           d="M 26.004963,23.110203 58.81984,36.484547 26.171159,22.648789 Z"
           id="path80"
           sodipodi:nodetypes="cccc" /><path
           style="fill:#000000;stroke:none;stroke-width:2;stroke-linecap:round;stroke-linejoin:round;stroke-dasharray:none;paint-order:stroke markers fill"
           d="M 28.102163,23.08147 60.91704,36.455814 28.268359,22.620056 Z"
           id="path81"
           sodipodi:nodetypes="cccc" /></g><path
         id="lpe_path-effect81"
         style="display:block"
         class="powerclip"
         d="M 0.09314199,-3.4147258 H 57.458962 V 53.770931 H 0.09314199 Z M 4.2713137,8.5881461 29.345398,10.134978 4.2854997,8.2144301 Z M 33.660065,10.917951 51.62478,3.6248435 33.662558,10.696244 Z M 27.542619,20.47463 41.718788,14.912092 27.545112,20.252923 Z M 7.5589264,44.911927 57.023033,40.718348 7.675391,44.512617 Z M 24.700244,23.19025 57.515121,36.564594 24.86644,22.728836 Z M 5.7955759,30.720492 23.76029,20.995232 5.7980689,30.498785 Z m 3.4859464,15.177503 a 0.56423616,0.56423616 0 0 0 -0.5642362,-0.564236 0.56423616,0.56423616 0 0 0 -0.5642362,0.564236 0.56423616,0.56423616 0 0 0 0.5642362,0.564236 0.56423616,0.56423616 0 0 0 0.5642362,-0.564236 z m 1.6256367,-18.59413 a 0.8412115,0.09349688 0 0 0 -0.841211,-0.0935 0.8412115,0.09349688 0 0 0 -0.841212,0.0935 0.8412115,0.09349688 0 0 0 0.841212,0.0935 0.8412115,0.09349688 0 0 0 0.841211,-0.0935 z M 44.480015,5.8423357 A 0.26458332,0.29765624 0 0 0 44.215431,5.5446795 0.26458332,0.29765624 0 0 0 43.950848,5.8423357 0.26458332,0.29765624 0 0 0 44.215431,6.1399919 0.26458332,0.29765624 0 0 0 44.480015,5.8423357 Z M 51.62478,7.9724278 A 0.69535542,3.7161608 0 0 0 50.929424,4.2562671 0.69535542,3.7161608 0 0 0 50.234069,7.9724278 0.69535542,3.7161608 0 0 0 50.929424,11.688589 0.69535542,3.7161608 0 0 0 51.62478,7.9724278 Z M 15.403549,39.156647 a 0.69535542,3.7161608 0 0 0 -0.695355,-3.716161 0.69535542,3.7161608 0 0 0 -0.695356,3.716161 0.69535542,3.7161608 0 0 0 0.695356,3.716161 0.69535542,3.7161608 0 0 0 0.695355,-3.716161 z M 7.6941661,4.2493531 46.735348,0.84424618 7.7083521,3.8756371 Z M 45.833879,-28.749907 a 0.69535542,3.7161608 0 0 0 -0.695356,-3.71616 0.69535542,3.7161608 0 0 0 -0.695355,3.71616 0.69535542,3.7161608 0 0 0 0.695355,3.716161 0.69535542,3.7161608 0 0 0 0.695356,-3.716161 z M 26.004963,23.110203 58.81984,36.484547 26.171159,22.648789 Z m 2.0972,-0.02873 L 60.91704,36.455814 28.268359,22.620056 Z" /></clipPath><filter
       inkscape:collect="always"
       style="color-interpolation-filters:sRGB"
       id="filter1"
       x="-0.012548175"
       y="-0.014693161"
       width="1.0250963"
       height="1.0293863"><feGaussianBlur
         inkscape:collect="always"
         stdDeviation="0.05404521"
         id="feGaussianBlur1" /></filter></defs><g
     inkscape:label="Layer 1"
     inkscape:groupmode="layer"
     id="layer1"
     transform="translate(-11.755115,-7.9011251)">
    <rect
       style="fill:url(#linearGradient16);fill-opacity:1;stroke:#cccccc;stroke-width:1.53149;stroke-linecap:round;stroke-linejoin:round;stroke-dasharray:none;paint-order:stroke markers fill"
       id="rect9"
       width="43.46851"
       height="40.46851"
       x="12.52086"
       y="8.6668701" />
    <text
       xml:space="preserve"
       style="font-size:2.5px;line-height:0.72;font-family:'Liberation Sans';-inkscape-font-specification:'Liberation Sans';letter-spacing:0px;writing-mode:lr-tb;direction:ltr;fill:#000000;stroke:none;stroke-width:0.499999;stroke-linejoin:round;paint-order:stroke markers fill"
       x="21.258625"
       y="-10.169398"
       id="text2"><tspan
         sodipodi:role="line"
         id="tspan2"
         style="font-style:normal;font-variant:normal;font-weight:normal;font-stretch:normal;font-family:Bitcheese;-inkscape-font-specification:Bitcheese;fill:#000000;stroke:none;stroke-width:0.5"
         x="21.258625"
         y="-10.169398">Fungerer det?</tspan></text>
    <g
       id="g18"
       inkscape:label="Drawing"
       clip-path="url(#clipPath70)"
       inkscape:path-effect="#path-effect81"
       transform="matrix(0.76943393,0,0,0.76943393,11.37338,9.9406318)">
      <path
         style="font-size:6px;line-height:0.72;font-family:Poppin;-inkscape-font-specification:Poppin;text-align:center;letter-spacing:0px;text-anchor:middle;stroke-width:0.5;stroke-linejoin:round;paint-order:stroke markers fill"
         d="m 9.0092807,6.1029783 q 0.336,-0.204 0.456,-0.204 0.096,0 0.288,0.102 0.204,0.114 0.204,0.372 0,0.288 -0.252,0.486 -0.504,0.402 -0.504,0.762 0,0.258 0.294,0.294 0.186,0.018 0.252,0.096 0.066,0.072 0.084,0.27 0.006,0.024 0.006,0.078 0,0.234 -0.168,0.384 -0.162,0.15 -0.432,0.15 -0.15,0 -0.216,0.12 -0.066,0.114 -0.15,0.522 -0.12,0.5639997 -0.252,0.7379997 -0.132,0.174 -0.444,0.174 -0.222,0 -0.312,-0.108 -0.09,-0.108 -0.09,-0.3839997 0,-0.174 0.036,-0.444 0.024,-0.186 0.024,-0.36 0,-0.27 -0.084,-0.306 -0.12,-0.078 -0.12,-0.288 0,-0.324 0.222,-0.444 0.09,-0.048 0.156,-0.156 0.066,-0.114 0.066,-0.21 0,-0.324 0.33,-0.9 0.33,-0.576 0.606,-0.744 z m 3.3719983,0.888 q 0.126,-0.216 0.432,-0.216 0.342,0 0.456,0.24 0.078,0.138 0.078,0.384 0,0.468 -0.246,1.08 -0.24,0.606 -0.564,0.912 -0.3,0.282 -0.708,0.282 -0.438,0 -0.792,-0.318 -0.222,-0.198 -0.306,-0.366 -0.078,-0.174 -0.108,-0.522 -0.018,-0.228 -0.018,-0.408 0,-0.366 0.096,-0.546 0.102,-0.18 0.336,-0.264 0.15,-0.054 0.258,-0.054 0.168,0 0.234,0.156 0.072,0.156 0.072,0.528 0,0.474 0.09,0.642 0.054,0.078 0.12,0.078 0.156,0 0.306,-0.336 0.15,-0.336 0.15,-0.714 0,-0.306 0.114,-0.558 z m 2.483998,0.366 q 0.3,-0.204 0.6,-0.204 0.654,0 1.068,0.906 0.204,0.444 0.204,0.894 0,0.402 -0.162,0.672 -0.162,0.264 -0.444,0.264 -0.258,0 -0.33,-0.144 -0.072,-0.144 -0.102,-0.696 -0.018,-0.39 -0.102,-0.6 -0.084,-0.216 -0.204,-0.216 -0.114,0 -0.216,0.21 -0.102,0.204 -0.156,0.594 -0.078,0.558 -0.192,0.762 -0.114,0.2039997 -0.354,0.2039997 -0.258,0 -0.378,-0.1379997 -0.114,-0.144 -0.114,-0.48 0,-0.15 0.03,-0.408 0.06,-0.6 0.258,-0.978 0.198,-0.378 0.594,-0.642 z m 4.032,1.116 q 0.096,-0.078 0.096,-0.192 0,-0.114 -0.072,-0.18 -0.066,-0.072 -0.168,-0.072 -0.15,0 -0.264,0.138 -0.084,0.102 -0.084,0.174 0,0.06 0.054,0.114 0.09,0.09 0.228,0.09 0.12,0 0.21,-0.072 z m -1.014,-1.116 q 0.216,-0.198 0.33,-0.264 0.114,-0.066 0.282,-0.066 0.108,0 0.36,0.03 0.57,0.066 0.828,0.192 0.336,0.168 0.564,0.792 0.228,0.624 0.228,1.266 0,0.57 -0.192,0.8819997 -0.204,0.33 -0.576,0.522 -0.366,0.192 -0.828,0.21 h -0.09 q -0.744,0 -0.744,-0.588 0,-0.264 0.156,-0.3539997 0.162,-0.09 0.612,-0.09 0.276,0 0.474,-0.096 0.204,-0.102 0.204,-0.234 0,-0.048 -0.312,-0.048 -0.072,0 -0.264,0.012 -0.054,0.006 -0.168,0.006 -0.612,0 -0.99,-0.336 -0.372,-0.336 -0.372,-0.822 0,-0.552 0.498,-1.014 z m 4.907996,-0.258 q 0,-0.096 -0.138,-0.096 -0.174,0 -0.276,0.132 -0.204,0.264 -0.204,0.354 0,0.066 0.108,0.066 0.138,0 0.324,-0.162 0.186,-0.168 0.186,-0.294 z m -0.534,-1.086 q 0.24,-0.102 0.504,-0.102 0.342,0 0.618,0.174 0.282,0.174 0.408,0.474 0.078,0.192 0.078,0.402 0,0.642 -0.654,1.206 l -0.468,0.402 0.66,-0.036 0.666,-0.03 0.03,0.366 q 0.012,0.108 0.012,0.15 0,0.144 -0.072,0.21 -0.072,0.066 -0.294,0.162 -0.39,0.168 -0.786,0.168 -0.876,0 -1.482,-0.738 -0.216,-0.258 -0.288,-0.438 -0.066,-0.18 -0.066,-0.492 0.024,-0.552 0.144,-0.792 0.138,-0.312 0.45,-0.654 0.312,-0.348 0.54,-0.432 z m 2.598002,0.834 q 0.132,-0.168 0.378,-0.168 0.228,0 0.402,0.156 0.132,0.114 0.228,0.114 0.09,0 0.372,-0.126 0.27,-0.132 0.516,-0.132 0.228,0 0.36,0.126 0.138,0.12 0.138,0.342 0,0.24 -0.108,0.342 -0.102,0.102 -0.564,0.3 -0.192,0.084 -0.288,0.222 -0.096,0.138 -0.186,0.426 -0.282,0.984 -0.612,0.984 -0.138,0 -0.312,-0.174 -0.162,-0.162 -0.288,-0.768 -0.126,-0.606 -0.126,-1.122 0,-0.414 0.09,-0.522 z m 4.709996,0.252 q 0,-0.096 -0.138,-0.096 -0.174,0 -0.276,0.132 -0.204,0.264 -0.204,0.354 0,0.066 0.108,0.066 0.138,0 0.324,-0.162 0.186,-0.168 0.186,-0.294 z m -0.534,-1.086 q 0.24,-0.102 0.504,-0.102 0.342,0 0.618,0.174 0.282,0.174 0.408,0.474 0.078,0.192 0.078,0.402 0,0.642 -0.654,1.206 l -0.468,0.402 0.66,-0.036 0.666,-0.03 0.03,0.366 q 0.012,0.108 0.012,0.15 0,0.144 -0.072,0.21 -0.072,0.066 -0.294,0.162 -0.39,0.168 -0.786,0.168 -0.876,0 -1.482,-0.738 -0.216,-0.258 -0.288,-0.438 -0.066,-0.18 -0.066,-0.492 0.024,-0.552 0.144,-0.792 0.138,-0.312 0.45,-0.654 0.312,-0.348 0.54,-0.432 z m 2.598002,0.834 q 0.132,-0.168 0.378,-0.168 0.228,0 0.402,0.156 0.132,0.114 0.228,0.114 0.09,0 0.372,-0.126 0.27,-0.132 0.516,-0.132 0.228,0 0.36,0.126 0.138,0.12 0.138,0.342 0,0.24 -0.108,0.342 -0.102,0.102 -0.564,0.3 -0.192,0.084 -0.288,0.222 -0.096,0.138 -0.186,0.426 -0.282,0.984 -0.612,0.984 -0.138,0 -0.312,-0.174 -0.162,-0.162 -0.288,-0.768 -0.126,-0.606 -0.126,-1.122 0,-0.414 0.09,-0.522 z m 5.843996,1.878 q 0.222,-0.21 0.222,-0.3 0,-0.09 -0.156,-0.09 -0.138,0 -0.21,0.078 -0.078,0.066 -0.078,0.288 0,0.168 0.036,0.168 0.036,0 0.186,-0.144 z m 0.558,-3.18 q 0.048,-0.084 0.156,-0.144 0.114,-0.066 0.222,-0.066 0.318,0 0.432,0.228 0.12,0.222 0.12,0.84 0,0.036 -0.006,0.114 0,0.078 0,0.12 -0.006,0.108 -0.006,0.348 0,0.822 0.084,1.314 0.048,0.354 0.048,0.552 0,0.33 -0.12,0.462 -0.114,0.132 -0.378,0.132 -0.318,0 -0.684,0.222 -0.366,0.222 -0.666,0.222 -0.312,0 -0.648,-0.3 -0.336,-0.3 -0.402,-0.642 -0.012,-0.054 -0.012,-0.174 0,-0.546 0.45,-1.044 0.456,-0.504 0.978,-0.504 0.096,0 0.132,0 0.042,0 0.084,-0.024 0.048,-0.03 0.06,-0.054 0.012,-0.024 0.024,-0.114 0.018,-0.096 0.018,-0.18 0,-0.09 0,-0.282 v -0.078 q 0,-0.288 0.036,-0.57 0.036,-0.282 0.078,-0.378 z m 3.353998,1.554 q 0,-0.096 -0.138,-0.096 -0.174,0 -0.276,0.132 -0.204,0.264 -0.204,0.354 0,0.066 0.108,0.066 0.138,0 0.324,-0.162 0.186,-0.168 0.186,-0.294 z m -0.534,-1.086 q 0.24,-0.102 0.504,-0.102 0.342,0 0.618,0.174 0.282,0.174 0.408,0.474 0.078,0.192 0.078,0.402 0,0.642 -0.654,1.206 l -0.468,0.402 0.66,-0.036 0.666,-0.03 0.03,0.366 q 0.012,0.108 0.012,0.15 0,0.144 -0.072,0.21 -0.072,0.066 -0.294,0.162 -0.39,0.168 -0.786,0.168 -0.876,0 -1.482,-0.738 -0.216,-0.258 -0.288,-0.438 -0.066,-0.18 -0.066,-0.492 0.024,-0.552 0.144,-0.792 0.138,-0.312 0.45,-0.654 0.312,-0.348 0.54,-0.432 z m 2.724002,0.036 q 0.156,-0.156 0.414,-0.156 0.15,0 0.246,0.084 0.096,0.084 0.186,0.3 0.156,0.42 0.156,0.612 0,0.132 0.066,0.18 0.072,0.042 0.27,0.042 0.228,0 0.36,0.114 0.138,0.114 0.138,0.294 0,0.162 -0.114,0.33 -0.066,0.108 -0.168,0.186 -0.096,0.078 -0.162,0.078 -0.168,0 -0.168,0.378 0,0.402 0.09,0.588 0.096,0.186 0.366,0.324 0.342,0.168 0.342,0.456 0,0.1919997 -0.174,0.3299997 -0.168,0.144 -0.456,0.144 -0.426,0 -0.798,-0.4799997 -0.372,-0.486 -0.372,-1.032 0,-0.108 -0.066,-0.24 -0.066,-0.132 -0.156,-0.21 -0.216,-0.198 -0.216,-0.564 0,-0.24 0.12,-0.318 0.072,-0.036 0.072,-0.288 0,-0.132 -0.03,-0.39 -0.024,-0.21 -0.024,-0.396 0,-0.264 0.078,-0.366 z m 2.999995,0.3 q 0.258,-0.132 0.558,-0.132 0.54,0 0.972,0.378 0.432,0.378 0.432,0.9 0,0.276 -0.234,0.732 -0.234,0.45 -0.54,0.798 -0.3,0.348 -0.486,0.348 -0.204,0 -0.318,-0.114 -0.108,-0.12 -0.108,-0.324 0,-0.486 0.51,-1.122 0.156,-0.192 0.156,-0.318 0,-0.222 -0.474,-0.222 -0.018,0 -0.06,0.006 -0.036,0 -0.06,0 -0.012,0 -0.048,0.006 -0.036,0 -0.048,0 -0.564,0 -0.564,-0.444 0,-0.072 0.006,-0.108 0.018,-0.102 0.108,-0.21 0.09,-0.114 0.198,-0.174 z m 0.678,3.588 q 0.126,-0.126 0.348,-0.126 0.258,0 0.396,0.162 0.078,0.084 0.078,0.2699997 0,0.084 -0.018,0.162 -0.042,0.156 -0.12,0.216 -0.078,0.06 -0.246,0.06 -0.252,0 -0.414,-0.132 -0.162,-0.126 -0.162,-0.306 0,-0.168 0.138,-0.3059997 z"
         id="text1"
         aria-label="fungerer det?"
         inkscape:original-d="m 9.0092807,6.1029783 q 0.336,-0.204 0.456,-0.204 0.096,0 0.288,0.102 0.204,0.114 0.204,0.372 0,0.288 -0.252,0.486 -0.504,0.402 -0.504,0.762 0,0.258 0.294,0.294 0.186,0.018 0.252,0.096 0.066,0.072 0.084,0.27 0.006,0.024 0.006,0.078 0,0.234 -0.168,0.384 -0.162,0.15 -0.432,0.15 -0.15,0 -0.216,0.12 -0.066,0.114 -0.15,0.522 -0.12,0.5639997 -0.252,0.7379997 -0.132,0.174 -0.444,0.174 -0.222,0 -0.312,-0.108 -0.09,-0.108 -0.09,-0.3839997 0,-0.174 0.036,-0.444 0.024,-0.186 0.024,-0.36 0,-0.27 -0.084,-0.306 -0.12,-0.078 -0.12,-0.288 0,-0.324 0.222,-0.444 0.09,-0.048 0.156,-0.156 0.066,-0.114 0.066,-0.21 0,-0.324 0.33,-0.9 0.33,-0.576 0.606,-0.744 z m 3.3719983,0.888 q 0.126,-0.216 0.432,-0.216 0.342,0 0.456,0.24 0.078,0.138 0.078,0.384 0,0.468 -0.246,1.08 -0.24,0.606 -0.564,0.912 -0.3,0.282 -0.708,0.282 -0.438,0 -0.792,-0.318 -0.222,-0.198 -0.306,-0.366 -0.078,-0.174 -0.108,-0.522 -0.018,-0.228 -0.018,-0.408 0,-0.366 0.096,-0.546 0.102,-0.18 0.336,-0.264 0.15,-0.054 0.258,-0.054 0.168,0 0.234,0.156 0.072,0.156 0.072,0.528 0,0.474 0.09,0.642 0.054,0.078 0.12,0.078 0.156,0 0.306,-0.336 0.15,-0.336 0.15,-0.714 0,-0.306 0.114,-0.558 z m 2.483998,0.366 q 0.3,-0.204 0.6,-0.204 0.654,0 1.068,0.906 0.204,0.444 0.204,0.894 0,0.402 -0.162,0.672 -0.162,0.264 -0.444,0.264 -0.258,0 -0.33,-0.144 -0.072,-0.144 -0.102,-0.696 -0.018,-0.39 -0.102,-0.6 -0.084,-0.216 -0.204,-0.216 -0.114,0 -0.216,0.21 -0.102,0.204 -0.156,0.594 -0.078,0.558 -0.192,0.762 -0.114,0.2039997 -0.354,0.2039997 -0.258,0 -0.378,-0.1379997 -0.114,-0.144 -0.114,-0.48 0,-0.15 0.03,-0.408 0.06,-0.6 0.258,-0.978 0.198,-0.378 0.594,-0.642 z m 4.032,1.116 q 0.096,-0.078 0.096,-0.192 0,-0.114 -0.072,-0.18 -0.066,-0.072 -0.168,-0.072 -0.15,0 -0.264,0.138 -0.084,0.102 -0.084,0.174 0,0.06 0.054,0.114 0.09,0.09 0.228,0.09 0.12,0 0.21,-0.072 z m -1.014,-1.116 q 0.216,-0.198 0.33,-0.264 0.114,-0.066 0.282,-0.066 0.108,0 0.36,0.03 0.57,0.066 0.828,0.192 0.336,0.168 0.564,0.792 0.228,0.624 0.228,1.266 0,0.57 -0.192,0.8819997 -0.204,0.33 -0.576,0.522 -0.366,0.192 -0.828,0.21 h -0.09 q -0.744,0 -0.744,-0.588 0,-0.264 0.156,-0.3539997 0.162,-0.09 0.612,-0.09 0.276,0 0.474,-0.096 0.204,-0.102 0.204,-0.234 0,-0.048 -0.312,-0.048 -0.072,0 -0.264,0.012 -0.054,0.006 -0.168,0.006 -0.612,0 -0.99,-0.336 -0.372,-0.336 -0.372,-0.822 0,-0.552 0.498,-1.014 z m 4.907996,-0.258 q 0,-0.096 -0.138,-0.096 -0.174,0 -0.276,0.132 -0.204,0.264 -0.204,0.354 0,0.066 0.108,0.066 0.138,0 0.324,-0.162 0.186,-0.168 0.186,-0.294 z m -0.534,-1.086 q 0.24,-0.102 0.504,-0.102 0.342,0 0.618,0.174 0.282,0.174 0.408,0.474 0.078,0.192 0.078,0.402 0,0.642 -0.654,1.206 l -0.468,0.402 0.66,-0.036 0.666,-0.03 0.03,0.366 q 0.012,0.108 0.012,0.15 0,0.144 -0.072,0.21 -0.072,0.066 -0.294,0.162 -0.39,0.168 -0.786,0.168 -0.876,0 -1.482,-0.738 -0.216,-0.258 -0.288,-0.438 -0.066,-0.18 -0.066,-0.492 0.024,-0.552 0.144,-0.792 0.138,-0.312 0.45,-0.654 0.312,-0.348 0.54,-0.432 z m 2.598002,0.834 q 0.132,-0.168 0.378,-0.168 0.228,0 0.402,0.156 0.132,0.114 0.228,0.114 0.09,0 0.372,-0.126 0.27,-0.132 0.516,-0.132 0.228,0 0.36,0.126 0.138,0.12 0.138,0.342 0,0.24 -0.108,0.342 -0.102,0.102 -0.564,0.3 -0.192,0.084 -0.288,0.222 -0.096,0.138 -0.186,0.426 -0.282,0.984 -0.612,0.984 -0.138,0 -0.312,-0.174 -0.162,-0.162 -0.288,-0.768 -0.126,-0.606 -0.126,-1.122 0,-0.414 0.09,-0.522 z m 4.709996,0.252 q 0,-0.096 -0.138,-0.096 -0.174,0 -0.276,0.132 -0.204,0.264 -0.204,0.354 0,0.066 0.108,0.066 0.138,0 0.324,-0.162 0.186,-0.168 0.186,-0.294 z m -0.534,-1.086 q 0.24,-0.102 0.504,-0.102 0.342,0 0.618,0.174 0.282,0.174 0.408,0.474 0.078,0.192 0.078,0.402 0,0.642 -0.654,1.206 l -0.468,0.402 0.66,-0.036 0.666,-0.03 0.03,0.366 q 0.012,0.108 0.012,0.15 0,0.144 -0.072,0.21 -0.072,0.066 -0.294,0.162 -0.39,0.168 -0.786,0.168 -0.876,0 -1.482,-0.738 -0.216,-0.258 -0.288,-0.438 -0.066,-0.18 -0.066,-0.492 0.024,-0.552 0.144,-0.792 0.138,-0.312 0.45,-0.654 0.312,-0.348 0.54,-0.432 z m 2.598002,0.834 q 0.132,-0.168 0.378,-0.168 0.228,0 0.402,0.156 0.132,0.114 0.228,0.114 0.09,0 0.372,-0.126 0.27,-0.132 0.516,-0.132 0.228,0 0.36,0.126 0.138,0.12 0.138,0.342 0,0.24 -0.108,0.342 -0.102,0.102 -0.564,0.3 -0.192,0.084 -0.288,0.222 -0.096,0.138 -0.186,0.426 -0.282,0.984 -0.612,0.984 -0.138,0 -0.312,-0.174 -0.162,-0.162 -0.288,-0.768 -0.126,-0.606 -0.126,-1.122 0,-0.414 0.09,-0.522 z m 5.843996,1.878 q 0.222,-0.21 0.222,-0.3 0,-0.09 -0.156,-0.09 -0.138,0 -0.21,0.078 -0.078,0.066 -0.078,0.288 0,0.168 0.036,0.168 0.036,0 0.186,-0.144 z m 0.558,-3.18 q 0.048,-0.084 0.156,-0.144 0.114,-0.066 0.222,-0.066 0.318,0 0.432,0.228 0.12,0.222 0.12,0.84 0,0.036 -0.006,0.114 0,0.078 0,0.12 -0.006,0.108 -0.006,0.348 0,0.822 0.084,1.314 0.048,0.354 0.048,0.552 0,0.33 -0.12,0.462 -0.114,0.132 -0.378,0.132 -0.318,0 -0.684,0.222 -0.366,0.222 -0.666,0.222 -0.312,0 -0.648,-0.3 -0.336,-0.3 -0.402,-0.642 -0.012,-0.054 -0.012,-0.174 0,-0.546 0.45,-1.044 0.456,-0.504 0.978,-0.504 0.096,0 0.132,0 0.042,0 0.084,-0.024 0.048,-0.03 0.06,-0.054 0.012,-0.024 0.024,-0.114 0.018,-0.096 0.018,-0.18 0,-0.09 0,-0.282 v -0.078 q 0,-0.288 0.036,-0.57 0.036,-0.282 0.078,-0.378 z m 3.353998,1.554 q 0,-0.096 -0.138,-0.096 -0.174,0 -0.276,0.132 -0.204,0.264 -0.204,0.354 0,0.066 0.108,0.066 0.138,0 0.324,-0.162 0.186,-0.168 0.186,-0.294 z m -0.534,-1.086 q 0.24,-0.102 0.504,-0.102 0.342,0 0.618,0.174 0.282,0.174 0.408,0.474 0.078,0.192 0.078,0.402 0,0.642 -0.654,1.206 l -0.468,0.402 0.66,-0.036 0.666,-0.03 0.03,0.366 q 0.012,0.108 0.012,0.15 0,0.144 -0.072,0.21 -0.072,0.066 -0.294,0.162 -0.39,0.168 -0.786,0.168 -0.876,0 -1.482,-0.738 -0.216,-0.258 -0.288,-0.438 -0.066,-0.18 -0.066,-0.492 0.024,-0.552 0.144,-0.792 0.138,-0.312 0.45,-0.654 0.312,-0.348 0.54,-0.432 z m 2.724002,0.036 q 0.156,-0.156 0.414,-0.156 0.15,0 0.246,0.084 0.096,0.084 0.186,0.3 0.156,0.42 0.156,0.612 0,0.132 0.066,0.18 0.072,0.042 0.27,0.042 0.228,0 0.36,0.114 0.138,0.114 0.138,0.294 0,0.162 -0.114,0.33 -0.066,0.108 -0.168,0.186 -0.096,0.078 -0.162,0.078 -0.168,0 -0.168,0.378 0,0.402 0.09,0.588 0.096,0.186 0.366,0.324 0.342,0.168 0.342,0.456 0,0.1919997 -0.174,0.3299997 -0.168,0.144 -0.456,0.144 -0.426,0 -0.798,-0.4799997 -0.372,-0.486 -0.372,-1.032 0,-0.108 -0.066,-0.24 -0.066,-0.132 -0.156,-0.21 -0.216,-0.198 -0.216,-0.564 0,-0.24 0.12,-0.318 0.072,-0.036 0.072,-0.288 0,-0.132 -0.03,-0.39 -0.024,-0.21 -0.024,-0.396 0,-0.264 0.078,-0.366 z m 2.999995,0.3 q 0.258,-0.132 0.558,-0.132 0.54,0 0.972,0.378 0.432,0.378 0.432,0.9 0,0.276 -0.234,0.732 -0.234,0.45 -0.54,0.798 -0.3,0.348 -0.486,0.348 -0.204,0 -0.318,-0.114 -0.108,-0.12 -0.108,-0.324 0,-0.486 0.51,-1.122 0.156,-0.192 0.156,-0.318 0,-0.222 -0.474,-0.222 -0.018,0 -0.06,0.006 -0.036,0 -0.06,0 -0.012,0 -0.048,0.006 -0.036,0 -0.048,0 -0.564,0 -0.564,-0.444 0,-0.072 0.006,-0.108 0.018,-0.102 0.108,-0.21 0.09,-0.114 0.198,-0.174 z m 0.678,3.588 q 0.126,-0.126 0.348,-0.126 0.258,0 0.396,0.162 0.078,0.084 0.078,0.2699997 0,0.084 -0.018,0.162 -0.042,0.156 -0.12,0.216 -0.078,0.06 -0.246,0.06 -0.252,0 -0.414,-0.132 -0.162,-0.126 -0.162,-0.306 0,-0.168 0.138,-0.3059997 z" /><g
         id="text4"
         style="font-size:6px;line-height:1.02;font-family:'Liberation Sans';-inkscape-font-specification:'Liberation Sans';text-align:center;letter-spacing:0px;text-anchor:middle;stroke-width:0.499999;stroke-linejoin:round;paint-order:stroke markers fill"
         aria-label="har du&#10;TUKLET&#10;med det?"><path
           style="font-size:5px;font-family:Poppin;-inkscape-font-specification:Poppin;fill:#d40000;stroke-width:0.5"
           d="m 22.467,26.652859 q 0.11,-0.14 0.325,-0.14 0.23,0 0.315,0.15 0.09,0.19 0.15,0.6 0.03,0.225 0.055,0.305 0.03,0.08 0.08,0.08 0.035,0 0.095,-0.03 0.19,-0.1 0.385,-0.1 0.37,0 0.68,0.31 0.21,0.21 0.34,0.5 0.135,0.285 0.135,0.505 0,0.155 -0.06,0.22 -0.11,0.14 -0.27,0.14 -0.14,0 -0.285,-0.115 -0.145,-0.115 -0.26,-0.32 -0.18,-0.33 -0.31,-0.33 -0.14,0 -0.29,0.385 -0.215,0.535 -0.5,0.535 -0.065,0 -0.12,-0.02 -0.105,-0.035 -0.165,-0.095 -0.06,-0.06 -0.115,-0.23 -0.05,-0.175 -0.09,-0.435 -0.04,-0.26 -0.095,-0.74 -0.075,-0.63 -0.075,-0.865 0,-0.225 0.075,-0.31 z m 4.114995,1.725 q 0.07,-0.07 0.07,-0.135 0,-0.02 -0.005,-0.025 -0.05,-0.05 -0.11,0.02 -0.065,0.055 -0.065,0.155 0,0.085 0.095,0 z m 0.075,-1.435 q 0.17,-0.06 0.305,-0.06 0.26,0 0.37,0.245 0.1,0.23 0.27,0.49 0.115,0.175 0.225,0.63 0.115,0.455 0.115,0.73 0,0.105 -0.02,0.15 -0.03,0.07 -0.145,0.115 -0.115,0.045 -0.25,0.045 -0.21,0 -0.27,-0.095 -0.01,-0.025 -0.05,-0.025 -0.07,0 -0.165,0.105 -0.34,0.405 -0.745,0.405 -0.305,0 -0.515,-0.24 -0.21,-0.245 -0.21,-0.655 0,-0.055 0.01,-0.165 0.055,-0.52 0.385,-1.03 0.33,-0.515 0.69,-0.645 z m 1.899997,0.175 q 0.11,-0.14 0.315,-0.14 0.19,0 0.335,0.13 0.11,0.095 0.19,0.095 0.075,0 0.31,-0.105 0.225,-0.11 0.43,-0.11 0.19,0 0.3,0.105 0.115,0.1 0.115,0.285 0,0.2 -0.09,0.285 -0.085,0.085 -0.47,0.25 -0.16,0.07 -0.24,0.185 -0.08,0.115 -0.155,0.355 -0.235,0.82 -0.51,0.82 -0.115,0 -0.26,-0.145 -0.135,-0.135 -0.24,-0.64 -0.105,-0.505 -0.105,-0.935 0,-0.345 0.075,-0.435 z m 4.869997,1.565 q 0.185,-0.175 0.185,-0.25 0,-0.075 -0.13,-0.075 -0.115,0 -0.175,0.065 -0.065,0.055 -0.065,0.24 0,0.14 0.03,0.14 0.03,0 0.155,-0.12 z m 0.465,-2.65 q 0.04,-0.07 0.13,-0.12 0.095,-0.055 0.185,-0.055 0.265,0 0.36,0.19 0.1,0.185 0.1,0.7 0,0.03 -0.005,0.095 0,0.065 0,0.1 -0.005,0.09 -0.005,0.29 0,0.685 0.07,1.095 0.04,0.295 0.04,0.46 0,0.275 -0.1,0.385 -0.095,0.11 -0.315,0.11 -0.265,0 -0.57,0.185 -0.305,0.185 -0.555,0.185 -0.26,0 -0.54,-0.25 -0.28,-0.25 -0.335,-0.535 -0.01,-0.045 -0.01,-0.145 0,-0.455 0.375,-0.87 0.38,-0.42 0.815,-0.42 0.08,0 0.11,0 0.035,0 0.07,-0.02 0.04,-0.025 0.05,-0.045 0.01,-0.02 0.02,-0.095 0.015,-0.08 0.015,-0.15 0,-0.075 0,-0.235 v -0.065 q 0,-0.24 0.03,-0.475 0.03,-0.235 0.065,-0.315 z m 2.879998,1.205 q 0.105,-0.18 0.36,-0.18 0.285,0 0.38,0.2 0.065,0.115 0.065,0.32 0,0.39 -0.205,0.9 -0.2,0.505 -0.47,0.76 -0.25,0.235 -0.59,0.235 -0.365,0 -0.66,-0.265 -0.185,-0.165 -0.255,-0.305 -0.065,-0.145 -0.09,-0.435 -0.015,-0.19 -0.015,-0.34 0,-0.305 0.08,-0.455 0.085,-0.15 0.28,-0.22 0.125,-0.045 0.215,-0.045 0.14,0 0.195,0.13 0.06,0.13 0.06,0.44 0,0.395 0.075,0.535 0.045,0.065 0.1,0.065 0.13,0 0.255,-0.28 0.125,-0.28 0.125,-0.595 0,-0.255 0.095,-0.465 z"
           id="path82"
           inkscape:original-d="m 22.467,26.652859 q 0.11,-0.14 0.325,-0.14 0.23,0 0.315,0.15 0.09,0.19 0.15,0.6 0.03,0.225 0.055,0.305 0.03,0.08 0.08,0.08 0.035,0 0.095,-0.03 0.19,-0.1 0.385,-0.1 0.37,0 0.68,0.31 0.21,0.21 0.34,0.5 0.135,0.285 0.135,0.505 0,0.155 -0.06,0.22 -0.11,0.14 -0.27,0.14 -0.14,0 -0.285,-0.115 -0.145,-0.115 -0.26,-0.32 -0.18,-0.33 -0.31,-0.33 -0.14,0 -0.29,0.385 -0.215,0.535 -0.5,0.535 -0.065,0 -0.12,-0.02 -0.105,-0.035 -0.165,-0.095 -0.06,-0.06 -0.115,-0.23 -0.05,-0.175 -0.09,-0.435 -0.04,-0.26 -0.095,-0.74 -0.075,-0.63 -0.075,-0.865 0,-0.225 0.075,-0.31 z m 4.114995,1.725 q 0.07,-0.07 0.07,-0.135 0,-0.02 -0.005,-0.025 -0.05,-0.05 -0.11,0.02 -0.065,0.055 -0.065,0.155 0,0.085 0.095,0 z m 0.075,-1.435 q 0.17,-0.06 0.305,-0.06 0.26,0 0.37,0.245 0.1,0.23 0.27,0.49 0.115,0.175 0.225,0.63 0.115,0.455 0.115,0.73 0,0.105 -0.02,0.15 -0.03,0.07 -0.145,0.115 -0.115,0.045 -0.25,0.045 -0.21,0 -0.27,-0.095 -0.01,-0.025 -0.05,-0.025 -0.07,0 -0.165,0.105 -0.34,0.405 -0.745,0.405 -0.305,0 -0.515,-0.24 -0.21,-0.245 -0.21,-0.655 0,-0.055 0.01,-0.165 0.055,-0.52 0.385,-1.03 0.33,-0.515 0.69,-0.645 z m 1.899997,0.175 q 0.11,-0.14 0.315,-0.14 0.19,0 0.335,0.13 0.11,0.095 0.19,0.095 0.075,0 0.31,-0.105 0.225,-0.11 0.43,-0.11 0.19,0 0.3,0.105 0.115,0.1 0.115,0.285 0,0.2 -0.09,0.285 -0.085,0.085 -0.47,0.25 -0.16,0.07 -0.24,0.185 -0.08,0.115 -0.155,0.355 -0.235,0.82 -0.51,0.82 -0.115,0 -0.26,-0.145 -0.135,-0.135 -0.24,-0.64 -0.105,-0.505 -0.105,-0.935 0,-0.345 0.075,-0.435 z m 4.869997,1.565 q 0.185,-0.175 0.185,-0.25 0,-0.075 -0.13,-0.075 -0.115,0 -0.175,0.065 -0.065,0.055 -0.065,0.24 0,0.14 0.03,0.14 0.03,0 0.155,-0.12 z m 0.465,-2.65 q 0.04,-0.07 0.13,-0.12 0.095,-0.055 0.185,-0.055 0.265,0 0.36,0.19 0.1,0.185 0.1,0.7 0,0.03 -0.005,0.095 0,0.065 0,0.1 -0.005,0.09 -0.005,0.29 0,0.685 0.07,1.095 0.04,0.295 0.04,0.46 0,0.275 -0.1,0.385 -0.095,0.11 -0.315,0.11 -0.265,0 -0.57,0.185 -0.305,0.185 -0.555,0.185 -0.26,0 -0.54,-0.25 -0.28,-0.25 -0.335,-0.535 -0.01,-0.045 -0.01,-0.145 0,-0.455 0.375,-0.87 0.38,-0.42 0.815,-0.42 0.08,0 0.11,0 0.035,0 0.07,-0.02 0.04,-0.025 0.05,-0.045 0.01,-0.02 0.02,-0.095 0.015,-0.08 0.015,-0.15 0,-0.075 0,-0.235 v -0.065 q 0,-0.24 0.03,-0.475 0.03,-0.235 0.065,-0.315 z m 2.879998,1.205 q 0.105,-0.18 0.36,-0.18 0.285,0 0.38,0.2 0.065,0.115 0.065,0.32 0,0.39 -0.205,0.9 -0.2,0.505 -0.47,0.76 -0.25,0.235 -0.59,0.235 -0.365,0 -0.66,-0.265 -0.185,-0.165 -0.255,-0.305 -0.065,-0.145 -0.09,-0.435 -0.015,-0.19 -0.015,-0.34 0,-0.305 0.08,-0.455 0.085,-0.15 0.28,-0.22 0.125,-0.045 0.215,-0.045 0.14,0 0.195,0.13 0.06,0.13 0.06,0.44 0,0.395 0.075,0.535 0.045,0.065 0.1,0.065 0.13,0 0.255,-0.28 0.125,-0.28 0.125,-0.595 0,-0.255 0.095,-0.465 z" /><path
           style="font-size:9px;font-family:Poppin;-inkscape-font-specification:Poppin;fill:#d40000;stroke-width:0.5"
           d="m 14.564994,32.469332 q 1.584,-0.081 2.025,-0.081 0.765,0 1.026,0.117 0.27,0.117 0.27,0.432 0,0.117 -0.027,0.279 -0.036,0.261 -0.27,0.396 -0.234,0.135 -0.981,0.342 -0.135,0.036 -0.135,0.801 0,0.567 0.036,1.332 0.036,0.972 0.036,1.206 0,0.864 -0.153,1.134 -0.153,0.261 -0.594,0.261 -0.153,0 -0.306,-0.063 -0.153,-0.063 -0.216,-0.153 -0.117,-0.18 -0.297,-2.286 l -0.171,-2.079 -0.576,-0.054 q -0.495,-0.045 -0.837,-0.297 -0.333,-0.252 -0.333,-0.567 0,-0.351 0.324,-0.513 0.333,-0.162 1.179,-0.207 z m 4.373994,0.999 q 0.162,-0.279 0.648,-0.279 0.477,0 0.63,0.342 0.162,0.333 0.252,1.521 0.09,1.242 0.315,1.728 0.234,0.486 0.72,0.486 0.513,0 0.711,-0.459 0.207,-0.468 0.207,-1.638 0,-1.251 0.198,-1.449 0.189,-0.189 0.513,-0.189 0.441,0 0.621,0.306 0.171,0.306 0.171,1.503 0,1.278 -0.189,1.863 -0.27,0.792 -0.882,1.269 -0.603,0.468 -1.341,0.468 -0.306,0 -0.558,-0.072 -0.909,-0.252 -1.377,-1.08 -0.468,-0.837 -0.639,-2.565 -0.072,-0.675 -0.072,-1.098 0,-0.513 0.072,-0.657 z m 6.056998,-1.161 q 0.099,-0.117 0.567,-0.117 0.369,0 0.594,0.261 0.225,0.261 0.225,0.684 0.009,0.603 0.315,0.603 0.243,0 0.918,-0.387 0.765,-0.441 1.233,-0.441 0.477,0 0.63,0.477 0.027,0.081 0.027,0.162 0,0.234 -0.252,0.495 -0.252,0.252 -0.855,0.639 l -0.387,0.252 0.936,0.648 q 1.08,0.729 1.08,1.305 0,0.207 -0.144,0.378 -0.189,0.234 -0.468,0.234 -0.441,0 -1.323,-0.648 -0.927,-0.666 -1.044,-0.666 -0.063,0 -0.063,0.396 0,0.216 0.027,0.504 0.027,0.315 0.027,0.504 0,0.252 -0.063,0.369 -0.063,0.108 -0.243,0.207 -0.171,0.099 -0.36,0.099 -0.27,0 -0.486,-0.225 -0.216,-0.234 -0.306,-0.657 -0.162,-0.63 -0.432,-2.385 -0.27,-1.755 -0.27,-2.16 0,-0.432 0.117,-0.531 z m 6.210006,0.243 q 0.198,-0.198 0.567,-0.198 0.369,0 0.513,0.198 0.117,0.216 0.216,2.223 l 0.081,1.998 1.089,0.045 q 0.891,0.045 1.197,0.207 0.306,0.153 0.306,0.576 0,0.396 -0.297,0.594 -0.288,0.189 -1.026,0.279 -0.216,0.027 -0.423,0.027 -0.738,0 -1.35,-0.27 -0.612,-0.279 -0.828,-0.711 -0.261,-0.504 -0.261,-2.835 0,-1.917 0.216,-2.133 z m 5.877004,0.126 q 0.63,-0.288 1.17,-0.288 0.531,0 0.729,0.306 0.081,0.135 0.081,0.288 0,0.45 -0.567,0.747 -0.279,0.153 -0.279,0.558 0,0.126 0.009,0.207 0.036,0.603 0.261,0.603 0.135,0 0.414,-0.18 0.144,-0.099 0.414,-0.099 0.117,0 0.162,0.018 0.414,0.171 0.414,0.639 0,0.288 -0.171,0.558 -0.171,0.27 -0.477,0.396 -0.468,0.189 -0.468,0.441 0,0.216 0.387,0.405 0.225,0.099 0.396,0.099 0.198,0 0.504,-0.126 0.252,-0.099 0.423,-0.099 0.486,0 0.594,0.747 0,0.009 0,0.036 0.009,0.027 0.009,0.036 0,0.387 -0.477,0.621 -0.468,0.234 -1.116,0.234 -0.846,0 -1.377,-0.387 -0.45,-0.333 -0.747,-0.99 -0.288,-0.666 -0.495,-1.836 -0.099,-0.558 -0.252,-1.044 -0.153,-0.486 -0.261,-0.612 -0.18,-0.189 -0.18,-0.405 0,-0.468 0.9,-0.873 z m 6.507001,-0.207 q 1.584,-0.081 2.025,-0.081 0.765,0 1.026,0.117 0.27,0.117 0.27,0.432 0,0.117 -0.027,0.279 -0.036,0.261 -0.27,0.396 -0.234,0.135 -0.981,0.342 -0.135,0.036 -0.135,0.801 0,0.567 0.036,1.332 0.036,0.972 0.036,1.206 0,0.864 -0.153,1.134 -0.153,0.261 -0.594,0.261 -0.153,0 -0.306,-0.063 -0.153,-0.063 -0.216,-0.153 -0.117,-0.18 -0.297,-2.286 l -0.171,-2.079 -0.576,-0.054 q -0.495,-0.045 -0.837,-0.297 -0.333,-0.252 -0.333,-0.567 0,-0.351 0.324,-0.513 0.333,-0.162 1.179,-0.207 z"
           id="path83"
           inkscape:original-d="m 14.564994,32.469332 q 1.584,-0.081 2.025,-0.081 0.765,0 1.026,0.117 0.27,0.117 0.27,0.432 0,0.117 -0.027,0.279 -0.036,0.261 -0.27,0.396 -0.234,0.135 -0.981,0.342 -0.135,0.036 -0.135,0.801 0,0.567 0.036,1.332 0.036,0.972 0.036,1.206 0,0.864 -0.153,1.134 -0.153,0.261 -0.594,0.261 -0.153,0 -0.306,-0.063 -0.153,-0.063 -0.216,-0.153 -0.117,-0.18 -0.297,-2.286 l -0.171,-2.079 -0.576,-0.054 q -0.495,-0.045 -0.837,-0.297 -0.333,-0.252 -0.333,-0.567 0,-0.351 0.324,-0.513 0.333,-0.162 1.179,-0.207 z m 4.373994,0.999 q 0.162,-0.279 0.648,-0.279 0.477,0 0.63,0.342 0.162,0.333 0.252,1.521 0.09,1.242 0.315,1.728 0.234,0.486 0.72,0.486 0.513,0 0.711,-0.459 0.207,-0.468 0.207,-1.638 0,-1.251 0.198,-1.449 0.189,-0.189 0.513,-0.189 0.441,0 0.621,0.306 0.171,0.306 0.171,1.503 0,1.278 -0.189,1.863 -0.27,0.792 -0.882,1.269 -0.603,0.468 -1.341,0.468 -0.306,0 -0.558,-0.072 -0.909,-0.252 -1.377,-1.08 -0.468,-0.837 -0.639,-2.565 -0.072,-0.675 -0.072,-1.098 0,-0.513 0.072,-0.657 z m 6.056998,-1.161 q 0.099,-0.117 0.567,-0.117 0.369,0 0.594,0.261 0.225,0.261 0.225,0.684 0.009,0.603 0.315,0.603 0.243,0 0.918,-0.387 0.765,-0.441 1.233,-0.441 0.477,0 0.63,0.477 0.027,0.081 0.027,0.162 0,0.234 -0.252,0.495 -0.252,0.252 -0.855,0.639 l -0.387,0.252 0.936,0.648 q 1.08,0.729 1.08,1.305 0,0.207 -0.144,0.378 -0.189,0.234 -0.468,0.234 -0.441,0 -1.323,-0.648 -0.927,-0.666 -1.044,-0.666 -0.063,0 -0.063,0.396 0,0.216 0.027,0.504 0.027,0.315 0.027,0.504 0,0.252 -0.063,0.369 -0.063,0.108 -0.243,0.207 -0.171,0.099 -0.36,0.099 -0.27,0 -0.486,-0.225 -0.216,-0.234 -0.306,-0.657 -0.162,-0.63 -0.432,-2.385 -0.27,-1.755 -0.27,-2.16 0,-0.432 0.117,-0.531 z m 6.210006,0.243 q 0.198,-0.198 0.567,-0.198 0.369,0 0.513,0.198 0.117,0.216 0.216,2.223 l 0.081,1.998 1.089,0.045 q 0.891,0.045 1.197,0.207 0.306,0.153 0.306,0.576 0,0.396 -0.297,0.594 -0.288,0.189 -1.026,0.279 -0.216,0.027 -0.423,0.027 -0.738,0 -1.35,-0.27 -0.612,-0.279 -0.828,-0.711 -0.261,-0.504 -0.261,-2.835 0,-1.917 0.216,-2.133 z m 5.877004,0.126 q 0.63,-0.288 1.17,-0.288 0.531,0 0.729,0.306 0.081,0.135 0.081,0.288 0,0.45 -0.567,0.747 -0.279,0.153 -0.279,0.558 0,0.126 0.009,0.207 0.036,0.603 0.261,0.603 0.135,0 0.414,-0.18 0.144,-0.099 0.414,-0.099 0.117,0 0.162,0.018 0.414,0.171 0.414,0.639 0,0.288 -0.171,0.558 -0.171,0.27 -0.477,0.396 -0.468,0.189 -0.468,0.441 0,0.216 0.387,0.405 0.225,0.099 0.396,0.099 0.198,0 0.504,-0.126 0.252,-0.099 0.423,-0.099 0.486,0 0.594,0.747 0,0.009 0,0.036 0.009,0.027 0.009,0.036 0,0.387 -0.477,0.621 -0.468,0.234 -1.116,0.234 -0.846,0 -1.377,-0.387 -0.45,-0.333 -0.747,-0.99 -0.288,-0.666 -0.495,-1.836 -0.099,-0.558 -0.252,-1.044 -0.153,-0.486 -0.261,-0.612 -0.18,-0.189 -0.18,-0.405 0,-0.468 0.9,-0.873 z m 6.507001,-0.207 q 1.584,-0.081 2.025,-0.081 0.765,0 1.026,0.117 0.27,0.117 0.27,0.432 0,0.117 -0.027,0.279 -0.036,0.261 -0.27,0.396 -0.234,0.135 -0.981,0.342 -0.135,0.036 -0.135,0.801 0,0.567 0.036,1.332 0.036,0.972 0.036,1.206 0,0.864 -0.153,1.134 -0.153,0.261 -0.594,0.261 -0.153,0 -0.306,-0.063 -0.153,-0.063 -0.216,-0.153 -0.117,-0.18 -0.297,-2.286 l -0.171,-2.079 -0.576,-0.054 q -0.495,-0.045 -0.837,-0.297 -0.333,-0.252 -0.333,-0.567 0,-0.351 0.324,-0.513 0.333,-0.162 1.179,-0.207 z" /><path
           style="font-size:5px;font-family:Poppin;-inkscape-font-specification:Poppin;fill:#d40000;stroke-width:0.5"
           d="m 19.766997,42.982858 q 0.27,-0.24 0.46,-0.24 0.17,0 0.45,0.175 0.215,0.135 0.305,0.135 0.08,0 0.205,-0.09 0.185,-0.135 0.37,-0.135 0.26,0 0.525,0.255 0.215,0.225 0.34,0.585 0.125,0.36 0.125,0.785 0,0.58 -0.39,0.58 -0.06,0 -0.09,-0.005 -0.165,-0.02 -0.245,-0.19 -0.08,-0.175 -0.165,-0.67 l -0.055,-0.37 -0.185,0.26 q -0.285,0.39 -0.55,0.39 -0.275,0 -0.485,-0.4 -0.095,-0.165 -0.115,-0.165 -0.03,0 -0.035,0.385 0,0.4 -0.1,0.585 -0.1,0.18 -0.325,0.18 -0.055,0 -0.085,-0.005 -0.4,-0.04 -0.4,-0.65 0,-0.24 0.06,-0.565 0.065,-0.335 0.14,-0.505 0.08,-0.17 0.245,-0.325 z m 4.709998,-0.355 q 0,-0.08 -0.115,-0.08 -0.145,0 -0.23,0.11 -0.17,0.22 -0.17,0.295 0,0.055 0.09,0.055 0.115,0 0.27,-0.135 0.155,-0.14 0.155,-0.245 z m -0.445,-0.905 q 0.2,-0.085 0.42,-0.085 0.285,0 0.515,0.145 0.235,0.145 0.34,0.395 0.065,0.16 0.065,0.335 0,0.535 -0.545,1.005 l -0.39,0.335 0.55,-0.03 0.555,-0.025 0.025,0.305 q 0.01,0.09 0.01,0.125 0,0.12 -0.06,0.175 -0.06,0.055 -0.245,0.135 -0.325,0.14 -0.655,0.14 -0.73,0 -1.235,-0.615 -0.18,-0.215 -0.24,-0.365 -0.055,-0.15 -0.055,-0.41 0.02,-0.46 0.12,-0.66 0.115,-0.26 0.375,-0.545 0.26,-0.29 0.45,-0.36 z m 3.175001,2.26 q 0.185,-0.175 0.185,-0.25 0,-0.075 -0.13,-0.075 -0.115,0 -0.175,0.065 -0.065,0.055 -0.065,0.24 0,0.14 0.03,0.14 0.03,0 0.155,-0.12 z m 0.465,-2.65 q 0.04,-0.07 0.13,-0.12 0.095,-0.055 0.185,-0.055 0.265,0 0.36,0.19 0.1,0.185 0.1,0.7 0,0.03 -0.005,0.095 0,0.065 0,0.1 -0.005,0.09 -0.005,0.29 0,0.685 0.07,1.095 0.04,0.295 0.04,0.46 0,0.275 -0.1,0.385 -0.095,0.11 -0.315,0.11 -0.265,0 -0.57,0.185 -0.305,0.185 -0.555,0.185 -0.26,0 -0.54,-0.25 -0.28,-0.25 -0.335,-0.535 -0.01,-0.045 -0.01,-0.145 0,-0.455 0.375,-0.87 0.38,-0.42 0.815,-0.42 0.08,0 0.11,0 0.035,0 0.07,-0.02 0.04,-0.025 0.05,-0.045 0.01,-0.02 0.02,-0.095 0.015,-0.08 0.015,-0.15 0,-0.075 0,-0.235 v -0.065 q 0,-0.24 0.03,-0.475 0.03,-0.235 0.065,-0.315 z m 3.739998,2.65 q 0.185,-0.175 0.185,-0.25 0,-0.075 -0.13,-0.075 -0.115,0 -0.175,0.065 -0.065,0.055 -0.065,0.24 0,0.14 0.03,0.14 0.03,0 0.155,-0.12 z m 0.465,-2.65 q 0.04,-0.07 0.13,-0.12 0.095,-0.055 0.185,-0.055 0.265,0 0.36,0.19 0.1,0.185 0.1,0.7 0,0.03 -0.005,0.095 0,0.065 0,0.1 -0.005,0.09 -0.005,0.29 0,0.685 0.07,1.095 0.04,0.295 0.04,0.46 0,0.275 -0.1,0.385 -0.095,0.11 -0.315,0.11 -0.265,0 -0.57,0.185 -0.305,0.185 -0.555,0.185 -0.26,0 -0.54,-0.25 -0.28,-0.25 -0.335,-0.535 -0.01,-0.045 -0.01,-0.145 0,-0.455 0.375,-0.87 0.38,-0.42 0.815,-0.42 0.08,0 0.11,0 0.035,0 0.07,-0.02 0.04,-0.025 0.05,-0.045 0.01,-0.02 0.02,-0.095 0.015,-0.08 0.015,-0.15 0,-0.075 0,-0.235 v -0.065 q 0,-0.24 0.03,-0.475 0.03,-0.235 0.065,-0.315 z m 2.794998,1.295 q 0,-0.08 -0.115,-0.08 -0.145,0 -0.23,0.11 -0.17,0.22 -0.17,0.295 0,0.055 0.09,0.055 0.115,0 0.27,-0.135 0.155,-0.14 0.155,-0.245 z m -0.445,-0.905 q 0.2,-0.085 0.42,-0.085 0.285,0 0.515,0.145 0.235,0.145 0.34,0.395 0.065,0.16 0.065,0.335 0,0.535 -0.545,1.005 l -0.39,0.335 0.55,-0.03 0.555,-0.025 0.025,0.305 q 0.01,0.09 0.01,0.125 0,0.12 -0.06,0.175 -0.06,0.055 -0.245,0.135 -0.325,0.14 -0.655,0.14 -0.73,0 -1.235,-0.615 -0.18,-0.215 -0.24,-0.365 -0.055,-0.15 -0.055,-0.41 0.02,-0.46 0.12,-0.66 0.115,-0.26 0.375,-0.545 0.26,-0.29 0.45,-0.36 z m 2.270002,0.03 q 0.13,-0.13 0.345,-0.13 0.125,0 0.205,0.07 0.08,0.07 0.155,0.25 0.13,0.35 0.13,0.51 0,0.11 0.055,0.15 0.06,0.035 0.225,0.035 0.19,0 0.3,0.095 0.115,0.095 0.115,0.245 0,0.135 -0.095,0.275 -0.055,0.09 -0.14,0.155 -0.08,0.065 -0.135,0.065 -0.14,0 -0.14,0.315 0,0.335 0.075,0.49 0.08,0.155 0.305,0.27 0.285,0.14 0.285,0.38 0,0.16 -0.145,0.275 -0.14,0.12 -0.38,0.12 -0.355,0 -0.665,-0.4 -0.31,-0.405 -0.31,-0.86 0,-0.09 -0.055,-0.2 -0.055,-0.11 -0.13,-0.175 -0.18,-0.165 -0.18,-0.47 0,-0.2 0.1,-0.265 0.06,-0.03 0.06,-0.24 0,-0.11 -0.025,-0.325 -0.02,-0.175 -0.02,-0.33 0,-0.22 0.065,-0.305 z m 2.499996,0.25 q 0.215,-0.11 0.465,-0.11 0.45,0 0.81,0.315 0.36,0.315 0.36,0.75 0,0.23 -0.195,0.61 -0.195,0.375 -0.45,0.665 -0.25,0.29 -0.405,0.29 -0.17,0 -0.265,-0.095 -0.09,-0.1 -0.09,-0.27 0,-0.405 0.425,-0.935 0.13,-0.16 0.13,-0.265 0,-0.185 -0.395,-0.185 -0.015,0 -0.05,0.005 -0.03,0 -0.05,0 -0.01,0 -0.04,0.005 -0.03,0 -0.04,0 -0.47,0 -0.47,-0.37 0,-0.06 0.005,-0.09 0.015,-0.085 0.09,-0.175 0.075,-0.095 0.165,-0.145 z m 0.565,2.99 q 0.105,-0.105 0.29,-0.105 0.215,0 0.33,0.135 0.065,0.07 0.065,0.225 0,0.07 -0.015,0.135 -0.035,0.13 -0.1,0.18 -0.065,0.05 -0.205,0.05 -0.21,0 -0.345,-0.11 -0.135,-0.105 -0.135,-0.255 0,-0.14 0.115,-0.255 z"
           id="path84"
           inkscape:original-d="m 19.766997,42.982858 q 0.27,-0.24 0.46,-0.24 0.17,0 0.45,0.175 0.215,0.135 0.305,0.135 0.08,0 0.205,-0.09 0.185,-0.135 0.37,-0.135 0.26,0 0.525,0.255 0.215,0.225 0.34,0.585 0.125,0.36 0.125,0.785 0,0.58 -0.39,0.58 -0.06,0 -0.09,-0.005 -0.165,-0.02 -0.245,-0.19 -0.08,-0.175 -0.165,-0.67 l -0.055,-0.37 -0.185,0.26 q -0.285,0.39 -0.55,0.39 -0.275,0 -0.485,-0.4 -0.095,-0.165 -0.115,-0.165 -0.03,0 -0.035,0.385 0,0.4 -0.1,0.585 -0.1,0.18 -0.325,0.18 -0.055,0 -0.085,-0.005 -0.4,-0.04 -0.4,-0.65 0,-0.24 0.06,-0.565 0.065,-0.335 0.14,-0.505 0.08,-0.17 0.245,-0.325 z m 4.709998,-0.355 q 0,-0.08 -0.115,-0.08 -0.145,0 -0.23,0.11 -0.17,0.22 -0.17,0.295 0,0.055 0.09,0.055 0.115,0 0.27,-0.135 0.155,-0.14 0.155,-0.245 z m -0.445,-0.905 q 0.2,-0.085 0.42,-0.085 0.285,0 0.515,0.145 0.235,0.145 0.34,0.395 0.065,0.16 0.065,0.335 0,0.535 -0.545,1.005 l -0.39,0.335 0.55,-0.03 0.555,-0.025 0.025,0.305 q 0.01,0.09 0.01,0.125 0,0.12 -0.06,0.175 -0.06,0.055 -0.245,0.135 -0.325,0.14 -0.655,0.14 -0.73,0 -1.235,-0.615 -0.18,-0.215 -0.24,-0.365 -0.055,-0.15 -0.055,-0.41 0.02,-0.46 0.12,-0.66 0.115,-0.26 0.375,-0.545 0.26,-0.29 0.45,-0.36 z m 3.175001,2.26 q 0.185,-0.175 0.185,-0.25 0,-0.075 -0.13,-0.075 -0.115,0 -0.175,0.065 -0.065,0.055 -0.065,0.24 0,0.14 0.03,0.14 0.03,0 0.155,-0.12 z m 0.465,-2.65 q 0.04,-0.07 0.13,-0.12 0.095,-0.055 0.185,-0.055 0.265,0 0.36,0.19 0.1,0.185 0.1,0.7 0,0.03 -0.005,0.095 0,0.065 0,0.1 -0.005,0.09 -0.005,0.29 0,0.685 0.07,1.095 0.04,0.295 0.04,0.46 0,0.275 -0.1,0.385 -0.095,0.11 -0.315,0.11 -0.265,0 -0.57,0.185 -0.305,0.185 -0.555,0.185 -0.26,0 -0.54,-0.25 -0.28,-0.25 -0.335,-0.535 -0.01,-0.045 -0.01,-0.145 0,-0.455 0.375,-0.87 0.38,-0.42 0.815,-0.42 0.08,0 0.11,0 0.035,0 0.07,-0.02 0.04,-0.025 0.05,-0.045 0.01,-0.02 0.02,-0.095 0.015,-0.08 0.015,-0.15 0,-0.075 0,-0.235 v -0.065 q 0,-0.24 0.03,-0.475 0.03,-0.235 0.065,-0.315 z m 3.739998,2.65 q 0.185,-0.175 0.185,-0.25 0,-0.075 -0.13,-0.075 -0.115,0 -0.175,0.065 -0.065,0.055 -0.065,0.24 0,0.14 0.03,0.14 0.03,0 0.155,-0.12 z m 0.465,-2.65 q 0.04,-0.07 0.13,-0.12 0.095,-0.055 0.185,-0.055 0.265,0 0.36,0.19 0.1,0.185 0.1,0.7 0,0.03 -0.005,0.095 0,0.065 0,0.1 -0.005,0.09 -0.005,0.29 0,0.685 0.07,1.095 0.04,0.295 0.04,0.46 0,0.275 -0.1,0.385 -0.095,0.11 -0.315,0.11 -0.265,0 -0.57,0.185 -0.305,0.185 -0.555,0.185 -0.26,0 -0.54,-0.25 -0.28,-0.25 -0.335,-0.535 -0.01,-0.045 -0.01,-0.145 0,-0.455 0.375,-0.87 0.38,-0.42 0.815,-0.42 0.08,0 0.11,0 0.035,0 0.07,-0.02 0.04,-0.025 0.05,-0.045 0.01,-0.02 0.02,-0.095 0.015,-0.08 0.015,-0.15 0,-0.075 0,-0.235 v -0.065 q 0,-0.24 0.03,-0.475 0.03,-0.235 0.065,-0.315 z m 2.794998,1.295 q 0,-0.08 -0.115,-0.08 -0.145,0 -0.23,0.11 -0.17,0.22 -0.17,0.295 0,0.055 0.09,0.055 0.115,0 0.27,-0.135 0.155,-0.14 0.155,-0.245 z m -0.445,-0.905 q 0.2,-0.085 0.42,-0.085 0.285,0 0.515,0.145 0.235,0.145 0.34,0.395 0.065,0.16 0.065,0.335 0,0.535 -0.545,1.005 l -0.39,0.335 0.55,-0.03 0.555,-0.025 0.025,0.305 q 0.01,0.09 0.01,0.125 0,0.12 -0.06,0.175 -0.06,0.055 -0.245,0.135 -0.325,0.14 -0.655,0.14 -0.73,0 -1.235,-0.615 -0.18,-0.215 -0.24,-0.365 -0.055,-0.15 -0.055,-0.41 0.02,-0.46 0.12,-0.66 0.115,-0.26 0.375,-0.545 0.26,-0.29 0.45,-0.36 z m 2.270002,0.03 q 0.13,-0.13 0.345,-0.13 0.125,0 0.205,0.07 0.08,0.07 0.155,0.25 0.13,0.35 0.13,0.51 0,0.11 0.055,0.15 0.06,0.035 0.225,0.035 0.19,0 0.3,0.095 0.115,0.095 0.115,0.245 0,0.135 -0.095,0.275 -0.055,0.09 -0.14,0.155 -0.08,0.065 -0.135,0.065 -0.14,0 -0.14,0.315 0,0.335 0.075,0.49 0.08,0.155 0.305,0.27 0.285,0.14 0.285,0.38 0,0.16 -0.145,0.275 -0.14,0.12 -0.38,0.12 -0.355,0 -0.665,-0.4 -0.31,-0.405 -0.31,-0.86 0,-0.09 -0.055,-0.2 -0.055,-0.11 -0.13,-0.175 -0.18,-0.165 -0.18,-0.47 0,-0.2 0.1,-0.265 0.06,-0.03 0.06,-0.24 0,-0.11 -0.025,-0.325 -0.02,-0.175 -0.02,-0.33 0,-0.22 0.065,-0.305 z m 2.499996,0.25 q 0.215,-0.11 0.465,-0.11 0.45,0 0.81,0.315 0.36,0.315 0.36,0.75 0,0.23 -0.195,0.61 -0.195,0.375 -0.45,0.665 -0.25,0.29 -0.405,0.29 -0.17,0 -0.265,-0.095 -0.09,-0.1 -0.09,-0.27 0,-0.405 0.425,-0.935 0.13,-0.16 0.13,-0.265 0,-0.185 -0.395,-0.185 -0.015,0 -0.05,0.005 -0.03,0 -0.05,0 -0.01,0 -0.04,0.005 -0.03,0 -0.04,0 -0.47,0 -0.47,-0.37 0,-0.06 0.005,-0.09 0.015,-0.085 0.09,-0.175 0.075,-0.095 0.165,-0.145 z m 0.565,2.99 q 0.105,-0.105 0.29,-0.105 0.215,0 0.33,0.135 0.065,0.07 0.065,0.225 0,0.07 -0.015,0.135 -0.035,0.13 -0.1,0.18 -0.065,0.05 -0.205,0.05 -0.21,0 -0.345,-0.11 -0.135,-0.105 -0.135,-0.255 0,-0.14 0.115,-0.255 z" /></g><path
         style="fill:none;stroke:#000000;stroke-width:0.8;stroke-linecap:round;stroke-linejoin:round;stroke-dasharray:none;paint-order:stroke markers fill"
         d="M 6.4806731,4.2252204 6.1103491,14.023382 C 7.3650889,13.499665 50.36409,13.529616 50.36409,13.529616 49.94948,10.212738 50.487532,2.2347278 50.487532,2.2347278 46.450543,1.3182222 5.493142,3.2222589 5.493142,3.2222589"
         id="path6"
         sodipodi:nodetypes="ccccc"
         inkscape:original-d="M 6.4806731,4.2252204 6.1103491,14.023382 C 7.3650889,13.499665 50.36409,13.529616 50.36409,13.529616 49.94948,10.212738 50.487532,2.2347278 50.487532,2.2347278 46.450543,1.3182222 5.493142,3.2222589 5.493142,3.2222589" /><path
         style="fill:none;stroke:#000000;stroke-width:0.8;stroke-linecap:round;stroke-linejoin:round;stroke-dasharray:none;paint-order:stroke markers fill"
         d="M 51.603817,48.3572 C 51.048331,46.196976 49.8086,23.929533 49.8086,23.929533 c -2.18055,0.276834 -39.562968,0.308604 -39.562968,0.308604 0.35289,1.959022 -1.0492524,22.9601 -1.0492524,22.9601 4.9010784,-0.688233 42.8625824,1.172694 42.8625824,1.172694"
         id="path7"
         sodipodi:nodetypes="ccccc"
         inkscape:original-d="M 51.603817,48.3572 C 51.048331,46.196976 49.8086,23.929533 49.8086,23.929533 c -2.18055,0.276834 -39.562968,0.308604 -39.562968,0.308604 0.35289,1.959022 -1.0492524,22.9601 -1.0492524,22.9601 4.9010784,-0.688233 42.8625824,1.172694 42.8625824,1.172694" /><path
         style="fill:none;stroke:#000000;stroke-width:0.799999;stroke-linecap:round;stroke-linejoin:round;stroke-dasharray:none;paint-order:stroke markers fill"
         d="m 27.800671,14.611674 c -0.218216,0.741933 -0.872864,8.597695 -0.872864,8.597695 l -1.134721,-3.142305 c 0.523717,0.196394 2.967733,0.218216 2.967733,0.218216 l -1.77163,2.104698"
         id="path8"
         sodipodi:nodetypes="ccccc"
         inkscape:original-d="m 27.800671,14.611674 c -0.218216,0.741933 -0.872864,8.597695 -0.872864,8.597695 l -1.134721,-3.142305 c 0.523717,0.196394 2.967733,0.218216 2.967733,0.218216 l -1.77163,2.104698" /><path
         style="font-size:6px;line-height:0.72;font-family:Poppin;-inkscape-font-specification:Poppin;text-align:center;letter-spacing:0px;text-anchor:middle;stroke-width:0.5;stroke-linejoin:round;paint-order:stroke markers fill"
         d="m 32.38524,17.091514 q 0.114,-0.204 0.396,-0.204 0.252,0 0.384,0.162 0.102,0.132 0.102,0.75 0,0.318 -0.012,0.516 -0.018,0.66 -0.072,0.924 -0.048,0.264 -0.174,0.408 -0.21,0.228 -0.492,0.228 -0.354,0 -0.738,-0.348 -0.282,-0.246 -0.414,-0.246 -0.198,0 -0.198,0.6 0,0.348 -0.126,0.51 -0.126,0.156 -0.396,0.156 -0.288,0 -0.384,-0.324 -0.096,-0.33 -0.096,-1.308 0,-0.678 0.036,-0.996 0.042,-0.324 0.144,-0.462 0.162,-0.246 0.438,-0.246 0.27,0 0.396,0.246 0.114,0.222 0.516,0.66 0.402,0.432 0.492,0.432 0.018,0 0.036,-0.084 0.024,-0.084 0.036,-0.228 0.018,-0.15 0.018,-0.312 0,-0.594 0.108,-0.834 z m 2.124,-0.438 q 0.42,-0.192 0.78,-0.192 0.354,0 0.486,0.204 0.054,0.09 0.054,0.192 0,0.3 -0.378,0.498 -0.186,0.102 -0.186,0.372 0,0.084 0.006,0.138 0.024,0.402 0.174,0.402 0.09,0 0.276,-0.12 0.096,-0.066 0.276,-0.066 0.078,0 0.108,0.012 0.276,0.114 0.276,0.426 0,0.192 -0.114,0.372 -0.114,0.18 -0.318,0.264 -0.312,0.126 -0.312,0.294 0,0.144 0.258,0.27 0.15,0.066 0.264,0.066 0.132,0 0.336,-0.084 0.168,-0.066 0.282,-0.066 0.324,0 0.396,0.498 0,0.006 0,0.024 0.006,0.018 0.006,0.024 0,0.258 -0.318,0.414 -0.312,0.156 -0.744,0.156 -0.564,0 -0.918,-0.258 -0.3,-0.222 -0.498,-0.66 -0.192,-0.444 -0.33,-1.224 -0.066,-0.372 -0.168,-0.696 -0.102,-0.324 -0.174,-0.408 -0.12,-0.126 -0.12,-0.27 0,-0.312 0.6,-0.582 z m 3.756001,-0.624 q 0.36,-0.246 0.504,-0.246 0.102,0 0.294,0.102 0.108,0.066 0.15,0.162 0.042,0.09 0.042,0.3 0,0.144 -0.006,0.234 -0.012,0.228 -0.012,0.384 0,0.822 0.102,1.812 0.108,0.99 0.222,1.158 0.108,0.162 0.108,0.3 0,0.294 -0.528,0.426 -0.246,0.066 -0.36,0.066 -0.174,0 -0.354,-0.12 -0.264,-0.18 -0.264,-0.462 0,-0.174 0.108,-0.372 0.06,-0.114 0.06,-0.528 0,-0.648 -0.114,-1.482 -0.114,-0.84 -0.234,-0.96 -0.132,-0.132 -0.132,-0.264 0,-0.228 0.414,-0.51 z"
         id="text8"
         aria-label="NEI"
         inkscape:original-d="m 32.38524,17.091514 q 0.114,-0.204 0.396,-0.204 0.252,0 0.384,0.162 0.102,0.132 0.102,0.75 0,0.318 -0.012,0.516 -0.018,0.66 -0.072,0.924 -0.048,0.264 -0.174,0.408 -0.21,0.228 -0.492,0.228 -0.354,0 -0.738,-0.348 -0.282,-0.246 -0.414,-0.246 -0.198,0 -0.198,0.6 0,0.348 -0.126,0.51 -0.126,0.156 -0.396,0.156 -0.288,0 -0.384,-0.324 -0.096,-0.33 -0.096,-1.308 0,-0.678 0.036,-0.996 0.042,-0.324 0.144,-0.462 0.162,-0.246 0.438,-0.246 0.27,0 0.396,0.246 0.114,0.222 0.516,0.66 0.402,0.432 0.492,0.432 0.018,0 0.036,-0.084 0.024,-0.084 0.036,-0.228 0.018,-0.15 0.018,-0.312 0,-0.594 0.108,-0.834 z m 2.124,-0.438 q 0.42,-0.192 0.78,-0.192 0.354,0 0.486,0.204 0.054,0.09 0.054,0.192 0,0.3 -0.378,0.498 -0.186,0.102 -0.186,0.372 0,0.084 0.006,0.138 0.024,0.402 0.174,0.402 0.09,0 0.276,-0.12 0.096,-0.066 0.276,-0.066 0.078,0 0.108,0.012 0.276,0.114 0.276,0.426 0,0.192 -0.114,0.372 -0.114,0.18 -0.318,0.264 -0.312,0.126 -0.312,0.294 0,0.144 0.258,0.27 0.15,0.066 0.264,0.066 0.132,0 0.336,-0.084 0.168,-0.066 0.282,-0.066 0.324,0 0.396,0.498 0,0.006 0,0.024 0.006,0.018 0.006,0.024 0,0.258 -0.318,0.414 -0.312,0.156 -0.744,0.156 -0.564,0 -0.918,-0.258 -0.3,-0.222 -0.498,-0.66 -0.192,-0.444 -0.33,-1.224 -0.066,-0.372 -0.168,-0.696 -0.102,-0.324 -0.174,-0.408 -0.12,-0.126 -0.12,-0.27 0,-0.312 0.6,-0.582 z m 3.756001,-0.624 q 0.36,-0.246 0.504,-0.246 0.102,0 0.294,0.102 0.108,0.066 0.15,0.162 0.042,0.09 0.042,0.3 0,0.144 -0.006,0.234 -0.012,0.228 -0.012,0.384 0,0.822 0.102,1.812 0.108,0.99 0.222,1.158 0.108,0.162 0.108,0.3 0,0.294 -0.528,0.426 -0.246,0.066 -0.36,0.066 -0.174,0 -0.354,-0.12 -0.264,-0.18 -0.264,-0.462 0,-0.174 0.108,-0.372 0.06,-0.114 0.06,-0.528 0,-0.648 -0.114,-1.482 -0.114,-0.84 -0.234,-0.96 -0.132,-0.132 -0.132,-0.264 0,-0.228 0.414,-0.51 z" /></g><text
       xml:space="preserve"
       style="font-size:6px;line-height:0.72;font-family:'Liberation Sans';-inkscape-font-specification:'Liberation Sans';text-align:center;letter-spacing:0px;writing-mode:lr-tb;direction:ltr;text-anchor:middle;fill:#000000;stroke:none;stroke-width:0.499999;stroke-linejoin:round;paint-order:stroke markers fill"
       x="28.453716"
       y="-3.1592281"
       id="text9"><tspan
         sodipodi:role="line"
         id="tspan9"
         style="font-style:normal;font-variant:normal;font-weight:normal;font-stretch:normal;font-size:6px;font-family:Bubbly;-inkscape-font-specification:Bubbly;fill:#000000;stroke:none;stroke-width:0.5"
         x="28.453716"
         y="-3.1592281">Bubbly</tspan></text>
    <text
       xml:space="preserve"
       style="font-size:6px;line-height:0.72;font-family:'Liberation Sans';-inkscape-font-specification:'Liberation Sans';text-align:center;letter-spacing:0px;writing-mode:lr-tb;direction:ltr;text-anchor:middle;fill:#000000;stroke:none;stroke-width:0.499999;stroke-linejoin:round;paint-order:stroke markers fill"
       x="27.447603"
       y="3.5966835"
       id="text18"><tspan
         sodipodi:role="line"
         id="tspan18"
         style="font-style:normal;font-variant:normal;font-weight:normal;font-stretch:normal;font-size:6px;font-family:Poppin;-inkscape-font-specification:Poppin;fill:#000000;stroke:none;stroke-width:0.5"
         x="27.447603"
         y="3.5966835">Poppin</tspan></text>
  </g>
</svg>
